<?xml version="1.0" encoding="utf-8"?>
<!DOCTYPE svg PUBLIC "-//W3C//DTD SVG 1.1//EN" "http://www.w3.org/Graphics/SVG/1.1/DTD/svg11.dtd">
<svg version="1.1" id="Layer_1" xmlns="http://www.w3.org/2000/svg" xmlns:xlink="http://www.w3.org/1999/xlink" x="0px" y="0px" xml:space="preserve">
    <symbol viewBox="0 0 15000 15000" id="facebook">
        <title>Facebook</title>
        <path  d="M8189.44 5529.34l0 -852.99c0,-415.74 277.2,-512.54 471.74,-512.54 194.36,0 1196.69,0 1196.69,0l0 -1827.88 -1648.06 -7.06c-1829.44,0 -2245.18,1363.61 -2245.18,2236.24l0 964.23 -1057.97 0 0 2133.35 1066.95 0c0,2418.02 0,5333.96 0,5333.96l2133.39 0c0,0 0,-2945.33 0,-5333.96l1583.54 0 76.51 -837.73 117.84 -1295.62 -1695.45 0z"/>
    </symbol>
    <symbol viewBox="0 0 15000 15000"  id="twitter">
        <title>Twitter</title>
        <path d="M13443.09 3871.55c-437.06,191.11 -906.71,319.56 -1400.17,377.6 503.87,-296.98 889.64,-767.19 1072.53,-1328.33 -471.07,275.44 -993.73,475.34 -1549.34,583.03 -444.01,-466.61 -1077.92,-758.05 -1779.14,-758.05 -1346.61,0 -2438.18,1075.07 -2438.18,2400.35 0,188.42 21.68,370.75 62.35,547.03 -2026.15,-100.12 -3823.42,-1056.08 -5025.62,-2508.19 -209.59,354.5 -330.69,766.98 -330.69,1206.73 0,832.52 431.52,1567.26 1084.92,1997.87 -399.08,-12.54 -775.76,-120.59 -1104.62,-300.22 0,10.05 0,20.25 0,29.9 0,307.38 60.02,600.24 166.94,870.15 297.89,752.81 968.3,1321.37 1789.55,1484.51 -205.07,54.12 -419.84,84.18 -642.99,84.18 -156.73,0 -309.36,-15.18 -458.73,-43.67 310.93,953.42 1211.34,1647.84 2277.98,1667.04 -834.86,644.26 -1885.71,1027.95 -3028.66,1027.95 -197.21,0 -390.85,-11.48 -582.32,-33.72 1080.1,681.02 2362.37,1078.48 3738.32,1078.48 3812.15,0 6154.62,-2640.87 6772.58,-5380.63 109.46,-484.18 165.87,-971.9 165.87,-1449.07 0,-103.52 -1.98,-207.61 -6.45,-310.42 475.9,-338.36 889.65,-761.04 1215.87,-1242.52z"/>
        
    </symbol>
    <symbol viewBox="0 0 15000 15000" id="instagram" >
        <title>instagram</title>
        <path  d="M5280.02 3229.99c-1130.44,0 -2050.08,919.63 -2050.08,2049.98l0 4440.05c0,1130.43 919.64,2050.06 2050.08,2050.06l4439.87 0c1130.52,0 2050.16,-919.63 2050.16,-2050.06l0 -4440.05c0,-1130.35 -919.64,-2049.98 -2050.16,-2049.98l-4439.87 0zm5606.56 1479.96c0,350.3 -283.97,634.22 -634.22,634.22 -350.4,0 -634.31,-283.92 -634.31,-634.22 0,-350.33 283.91,-634.29 634.31,-634.29 350.25,0 634.22,283.96 634.22,634.29zm-3386.57 1034.51c-968.05,0 -1755.58,787.49 -1755.58,1755.5 0,968.12 787.53,1755.65 1755.58,1755.65 968.08,0 1755.56,-787.53 1755.56,-1755.65 0,-968.01 -787.48,-1755.5 -1755.56,-1755.5zm0 4394.55c-1455.16,0 -2639.07,-1183.77 -2639.07,-2639.05 0,-1455.15 1183.91,-2639.05 2639.07,-2639.05 1455.14,0 2639.04,1183.9 2639.04,2639.05 0,1455.28 -1183.9,2639.05 -2639.04,2639.05zm2219.88 2514.47l-4439.87 0c-1617.62,0 -2933.54,-1315.84 -2933.54,-2933.46l0 -4440.05c0,-1617.46 1315.92,-2933.46 2933.54,-2933.46l4439.87 0c1617.63,0 2933.64,1316 2933.64,2933.46l0 4440.05c0,1617.62 -1316.01,2933.46 -2933.64,2933.46z"/>
        
    </symbol>
    <symbol viewBox="0 0 15000 15000" id="youtube">
        <title>youtube</title>
        <path d="M9306.72 7384.51l-2924.21 1579.96 -0.79 -2432.36 0 -739.49 1318.91 717.75 1606.09 874.14zm3498.22 -2141.94c0,0 -105.59,-778.67 -429.78,-1120.99 -411.89,-449.21 -873.49,-451.98 -1084.31,-478.12 -1516.18,-113.41 -3788.14,-113.41 -3788.14,-113.41l-5.08 0c0,0 -2273.44,0 -3788,114.06 -211.65,25.49 -672.42,28.26 -1085.09,477.61 -323.92,342.51 -429.65,1121.18 -429.65,1121.18 0,0 -108.65,913.08 -108.65,1827l0 856c0,914.24 108.65,1827.83 108.65,1827.83 0,0 105.73,778.17 429.65,1120.49 412.67,449.72 954.06,435.33 1194.25,482 866.41,86.49 3681.29,113.74 3681.29,113.74 0,0 2274.59,-4.07 3790.77,-117.63 210.82,-26.45 672.42,-28.39 1084.31,-478.58 324.19,-342.36 429.78,-1120.2 429.78,-1120.2 0,0 108.83,-913.41 108.83,-1827.65l0 -856c0,-913.92 -108.83,-1827.33 -108.83,-1827.33z"/>
    </symbol>

</svg>