<?xml version="1.0" encoding="utf-8"?>
<!DOCTYPE svg PUBLIC "-//W3C//DTD SVG 1.1//EN" "http://www.w3.org/Graphics/SVG/1.1/DTD/svg11.dtd">
<svg version="1.1" id="Layer_1" xmlns="http://www.w3.org/2000/svg" xmlns:xlink="http://www.w3.org/1999/xlink" x="0px" y="0px" xml:space="preserve">
    <symbol viewBox="0 0 21000 17000" id="fieltorcedor">
        <title>Fiel Torcedor</title>
          <path  d="M5077.17 1438.07l0 1373.28c-745.87,0 -1554.71,0 -2327.06,0 0,367.58 -1.15,671.81 0,1032.4 683.11,0 1367.39,0.14 2050.49,0.14 0,477.47 0,954.91 0,1432.38 -680.74,0 -1369.74,0 -2050.49,0 0,828.39 0,1695.6 1.15,2545.72 -562.56,0 -1125.09,0 -1687.69,0 0,-2124.95 0,-4249.99 0,-6374.91 -0.18,-3.1 -0.34,-6.19 -0.27,-9.01l4013.87 0zm-1092.03 14652.16c-8.11,20.26 -22.05,34.71 -35.46,49.65 -16.71,-17.19 19.61,-41.49 35.46,-49.65zm113.45 -7.1c-10.79,27.06 -40.83,34.83 -63.82,49.66 17.06,-20.77 33.1,-42.56 63.82,-49.66zm13529.86 -6509.63c-18.65,-18.15 -27.61,33.5 -56.73,28.37 18.79,-21.5 16.68,-31.64 21.27,-56.73 -25.46,10.27 -17.61,53.26 -56.72,35.46 38.39,-22.57 5.93,-48.05 42.55,-85.12 18.64,-7.33 43.51,-8.48 70.89,-7.07 22.07,-346.13 8.27,-659.92 0,-1042.4 8.25,-27.22 42.27,-28.63 42.56,-63.83 59.15,7.04 81.59,50.76 148.91,49.63 2.54,351.85 15.93,658.99 7.08,978.58 298.29,-146.26 766.66,-351.41 709.1,-787.11 -22.76,-172.34 -206.64,-287.56 -404.18,-276.56 3.15,-6.29 6.23,-12.66 14.19,-14.16 -34.65,24.64 -89.27,-6.96 -127.64,7.09 1.76,-7.7 14.11,-4.82 14.2,-14.19 -148.43,34.45 -270.47,10.76 -411.32,63.82 -18.12,0.31 -8.63,-5.29 -7.07,-14.2 -48.48,9.56 -107.39,62.47 -163.11,42.56 -45.3,42.51 -140.05,41.95 -205.64,28.37 28.73,-25.65 48.7,-60.02 70.93,-92.19 230.97,-119.78 652.41,-135.49 964.38,-99.29 121.15,14.08 210.92,65.43 304.92,113.46 80.71,41.25 173.99,104.88 191.44,212.74 24.39,150.38 -10.35,222.03 -35.42,361.65 -169.9,283.98 -414.31,493.37 -730.41,631.12 690.64,216.14 1284.4,458.35 1921.7,666.55 10.35,39.29 71.18,28.1 85.08,63.82 -39.61,15.36 -90.29,-1.35 -113.45,28.38 -244.1,-28.06 -473.31,-107.69 -687.85,-141.83 -361.74,-106 -701.72,-250.68 -1084.93,-361.65 -15.46,1.3 -22.57,-5.8 -21.26,-21.26 -44.24,14.22 -91.62,-25.36 -141.82,-28.38 -2.02,-11.45 6.69,-12.2 7.07,-21.26 -70.43,17.44 -83.07,-24.3 -141.82,-35.46 -18.78,507.59 6.55,931.41 35.46,1333.14 -67.4,45.32 -14.31,178.08 -92.18,219.8 -21.36,-30.21 -60.11,-124.21 -49.64,-184.36 -14.1,-14.26 -33.54,-23.18 -42.55,-42.53 -60.62,-443.76 -57.68,-975.7 -42.53,-1389.87 -23.75,-9.78 -61.43,13.02 -85.09,-7.1 -7.45,-49.95 34.92,-50.18 49.63,-77.99zm-943.13 1879.14c12.68,-2 14.55,6.69 7.11,7.09 20.31,8.08 37.74,15.58 77.98,7.1 -32.02,36.88 28.66,2.57 49.65,-7.1 7.02,90.21 -105.01,105.41 -148.93,49.63 3.78,-19.85 10.42,-36.85 14.19,-56.72zm28.37 -219.82c-0.31,12.13 5.25,18.36 14.17,21.27 -18.32,10.04 -44.43,12.29 -63.82,21.26 3.81,-26.94 27.66,-33.82 49.65,-42.53zm304.9 -42.56c7.16,60.42 -78.13,45.6 -99.26,21.27 -1.17,-67.4 65.67,-45.27 99.26,-21.27zm-9750.29 49.63c-25.25,75.03 -25.25,165.97 -56.72,248.21 0.42,-214.09 -69.14,-410.67 -163.09,-553.1 -63.5,-45.21 -91.56,-125.93 -177.27,-148.93 0.51,-12.34 -1.59,-22.06 -7.1,-28.35 -158.33,-71.09 -252.1,-114.63 -453.82,-134.75 -90.43,-9.01 -145.74,-2.1 -234.03,14.2 -223.21,41.17 -365.29,114.66 -517.64,255.27 -140.49,129.67 -231.21,290.26 -326.19,439.65 -94.35,148.36 -161.84,321.34 -219.84,496.37 -18.4,18.67 11.48,5.6 7.11,28.36 -47.96,122.11 -35.3,221.28 -42.54,361.65 -2.17,16.37 20.48,7.89 21.27,21.3 -29.98,13.9 0.98,49.63 -14.19,70.88 12.2,2.78 18.17,-10.49 21.28,0 -23.06,12.45 -10.68,64.98 14.18,70.93 -18.27,127.36 93.68,277.78 127.64,375.82 -68.35,-71.13 -112.96,-165.95 -191.48,-226.89 11.84,-14.12 -0.63,-9.04 0,-28.38 -37.25,-28.41 -96.33,-37.27 -106.35,-56.75 -23.58,11.66 -31.31,62.03 0,70.92 -32.44,20.06 3.81,39.18 7.1,56.74 40.25,214.57 178.28,380.28 326.19,496.35 80.79,63.46 193.29,104.26 262.36,163.12 159.62,59.07 391.73,105.41 574.38,70.93 276.96,-52.31 443.59,-259.74 616.92,-418.38 6.97,-59.72 75.19,-86.56 92.18,-156.02 320.65,-321.6 519.05,-1025.41 439.65,-1489.15zm-468.01 517.67l0 0c-16.61,136.62 -72.02,288.97 -106.35,411.29 -37.78,134.45 -64.06,224.13 -127.66,347.45 -17.73,34.42 -50.83,65.38 -63.82,99.29 -59.42,155.44 -205.09,298.29 -319.09,375.82 -138.18,93.98 -295.04,138.87 -475.11,106.36 -118.88,-21.45 -239.2,-154.14 -297.83,-241.08 -4.35,-6.47 -24.26,-30.47 -28.36,-21.29 -6.6,-12.73 -2.31,-77.41 -49.63,-70.9 -9.06,-103.15 -71.3,-177.13 -99.29,-269.46 -18.92,-62.5 -18.58,-123.93 -35.46,-219.85 -6.15,-20.63 -10.59,-7.96 -28.33,-7.09 -2.2,-16.33 20.49,-7.85 21.26,-21.26 -3.49,-224.63 15.2,-452 92.19,-645.29 104.65,-262.86 306.43,-558.61 503.46,-680.75 66.35,-41.14 163,-89.39 226.91,-106.35 76.76,-20.4 158.59,4.41 191.46,-28.38 65.81,17.68 132.69,-13.06 205.66,21.28 18.09,-0.81 24.82,-13.01 35.44,-21.28 29.71,39.28 127.87,59.85 148.91,63.81 245.05,181.57 243.67,595.33 205.64,907.68zm5545.28 -2042.24c15.11,-3.31 13.47,10.13 14.16,21.26 27.59,-8.86 35.49,-0.67 63.83,-14.17 -25.45,48.1 -122.58,69.16 -170.18,92.19 -34.22,16.54 -63.39,47.5 -113.45,7.06 21.06,-80.8 128.13,-68.11 205.64,-106.34zm794.2 -404.18c0.14,29.68 102.74,30.58 170.18,49.63 -14.16,33.09 -27.39,67.16 -70.93,70.88 -114.57,105.81 -368.48,133.99 -553.09,163.12 -282.79,87.38 -558.09,144.73 -801.3,276.56 -95.88,15.53 -181.29,78.25 -269.46,77.99 4.99,-21 40.77,-11.25 42.55,-35.46 -118.85,33.3 -183.3,-31.34 -283.63,-56.72 6.37,-26.7 28.91,-37.28 63.79,-35.48 16.14,-7.54 -20.37,-21.48 -14.17,-42.53 22.51,-36.58 81.52,-36.66 99.26,-78.01 61.96,-3.47 133.71,-92.01 198.57,-92.18 357.04,-182.36 838.81,-304.44 1248.05,-312.01 4.59,7.21 16.29,7.33 14.16,21.28 11.87,-9.41 23.78,-18.8 49.63,-14.17 3.93,15.72 -13.52,10.09 -14.17,21.27 14.24,22.76 16.49,-25.41 35.47,-21.27 -7.62,36.61 30.73,18.69 28.37,0 7.81,23.42 38.08,15.14 56.72,7.1zm-4275.96 1368.56c47.49,-60.91 38.08,-201.06 -21.27,-262.37 -30.11,6.47 -35.69,-11.57 -42.53,-28.36 -70,4.15 -172.32,-19.16 -234.04,-28.36 -71.96,20.07 -162.59,-1.71 -255.27,0 -241.94,4.47 -505.28,71.14 -716.2,106.37 -11.46,9.79 -17.47,25.08 -42.53,21.27 2.47,-9.32 12.49,-11.17 14.16,-21.27 -106.84,58.09 -291.34,147.77 -389.99,70.9 11.14,-22.24 14.45,-19.22 7.07,-49.63 303.52,-223.04 806.38,-294.31 1184.23,-312.02 39.81,23.63 63.27,-9.84 99.27,14.19 17.61,1.07 29.44,-3.66 35.46,-14.19 218.49,22.39 437.67,57.59 638.2,120.55 6.25,22.1 15.46,41.28 49.65,35.47 -9.02,51.96 127.47,48.95 113.46,106.34 8.23,5.98 18.98,9.38 35.44,7.11 97.12,183.53 -77.51,387.59 -212.72,453.84 0,9.43 0,18.9 0,28.36 -5.54,4.33 -16.02,-5.55 -14.2,-7.1 -38.38,32.6 -82.92,73.21 -120.55,106.35 -26.09,9.39 -65.29,5.64 -63.82,42.57 -195.41,102.42 -368.29,227.36 -581.46,311.99 3.52,16.07 34.76,15.53 14.2,35.46 149.83,86.54 325.87,146.87 446.71,262.37 9.47,0 18.92,0 28.35,0 5.24,16.07 27.05,15.53 28.38,35.46 253.01,115.74 449.25,288.25 666.57,439.65 -80.73,-20.54 -175.49,-106.18 -262.37,-106.35 41.53,15.74 72.29,70.19 113.46,63.82 1.99,11.45 -6.69,12.2 -7.09,21.27 105.43,29.95 188.81,117.57 276.56,141.8 5.51,6.33 7.61,16.02 7.09,28.37 28.51,-7.36 83.02,14.6 85.09,56.73 91.15,29.4 149.64,91.47 219.81,141.84 -20.89,47.47 -59.69,38.04 -127.62,42.53 -0.6,-11.22 3.4,-27.03 -7.1,-28.36 -15.66,-13.24 -11.83,28.24 0,14.21 -19.87,23.65 -92.68,0 -134.74,-14.21 -216.14,-72.94 -522.95,-254.95 -716.19,-354.55 -39.47,4 -49.68,-21.25 -70.92,-35.46 -9.46,0 -18.89,0 -28.36,0 -281.73,-167.36 -585.91,-312.29 -865.13,-482.18 -43.39,59.67 -62.06,133.85 -85.08,219.81 -93.26,348.18 -205.9,817.34 -326.19,1113.29 -12.76,31.43 -50.7,60.07 -78,85.13 -10.22,-1.62 -2.48,-21.19 -14.2,-21.31 -56.2,43.09 -53.96,144.62 -120.55,177.29 -17.63,1.1 -21.93,-11.14 -35.43,-14.17 -38.61,-550.57 191.27,-1127.79 304.9,-1616.77 -85.9,-0.89 -165.5,-94.64 -234.01,-156.01 17.48,-46.34 84.29,-43.37 99.29,-92.19 55.83,0.34 144.61,-23.31 148.91,-70.93 28.22,-5.16 28.51,-5.16 56.73,0 93.69,-232.21 132.81,-449.6 219.81,-716.17 14.14,-17.23 30.3,11.95 35.46,-14.2 -3.09,-10.53 -9.06,2.8 -21.26,0 14.6,-32.7 45.96,-48.56 70.88,-70.9 -1.12,-8.34 -12.92,-6 -21.26,-7.09 5.45,-22.93 19.62,-37.11 42.57,-42.56 -2.6,12.06 5.53,13.4 14.15,14.19 2.15,18.67 -9.8,23.26 -28.35,21.27 14.14,21.18 51.23,-18.06 63.82,0 7.88,19.18 5.51,40.54 -7.09,56.72 62.58,107.89 -8.05,246.71 -7.07,361.66 39.79,-33.62 40.42,-93.4 70.89,-120.56 33.93,1.54 35.37,35.56 63.82,42.53 -19.25,120.65 9.07,236.3 -49.63,319.13 222.3,-73.89 476.62,-246.09 652.39,-446.74 10.16,21.15 36.96,-18.64 35.44,14.17zm3091.73 -595.65c80.19,33.49 49.49,241.03 42.54,361.65 29.41,-46.26 57.51,-93.78 92.2,-134.72 22.69,1.67 16.26,45.98 -7.07,42.52 17.16,59.87 4.43,122.12 0,205.64 183.13,-35.16 315.39,-58.85 510.53,-49.63 2.02,11.46 -6.69,12.21 -7.09,21.27 56.16,-12.44 160.59,49.08 226.93,49.66 -32.76,137.43 -158.01,182.35 -262.37,248.18 25.09,3.83 17.43,-25.11 42.53,-21.27 -138.38,120.87 -288.28,148.77 -482.18,212.73 -2.01,-11.45 6.7,-12.2 7.07,-21.26 -32.46,11.68 -62.43,58.21 -106.35,35.43 -22.73,221.26 -61.32,412.78 -49.63,638.22 155.35,-50.4 348.58,-124.07 531.83,-170.21 8.91,1.76 7.13,14.12 0,14.19 170.76,-91.1 453.23,-88.77 638.2,-106.35 28.21,-2.67 79.48,-27.24 99.27,0 98.52,-31.61 217.68,60.92 326.2,56.73 -1.16,8.22 1.56,12.61 7.06,14.17 -25.13,136.45 -152.14,168.18 -311.99,191.47 -395.29,57.51 -768.44,240.19 -1063.67,368.72 -89.21,77.91 -244.97,40.4 -354.55,21.3 0,-9.46 0,-18.93 0,-28.4 -116.51,-20.56 -211.5,-62.69 -276.57,-134.71 -59.47,-144.84 -27.18,-285.43 -49.63,-411.28 36.07,-196.64 18.99,-284.7 63.84,-475.11 -77.19,-33.33 -142.09,-19.36 -198.55,-77.99 8.74,-26.7 47.24,-23.69 63.79,-42.56 -39.87,-96.38 98.08,-111.52 184.38,-170.18 42.91,-264.13 89.82,-492.92 226.94,-680.74 2.88,-17.1 -12.99,-15.42 -7.1,-35.47 36.47,-6.92 3.35,-62.96 49.63,-70.9 0.89,12.7 -8.69,14.95 -7.1,28.34 24.12,-30.59 32.72,6.49 42.56,-28.34 23.08,7.85 23.57,42.55 49.63,28.34 -14.9,45.96 10.35,89.7 -21.28,120.56zm-914.75 2134.42c-134.62,110.33 -339.38,194.42 -560.19,156.02 -93.92,-16.34 -265.68,-78.4 -340.39,-134.72 -10.07,-7.62 -55.55,8.86 -42.53,-28.39 -74.3,-6.07 -90.08,-70.66 -156.01,-85.09 -2.83,-18.45 -21.15,-21.39 -21.27,-42.53 -224.97,-122.67 -412.29,-412.93 -404.22,-666.59 -39.61,-72.62 -5.04,-167.93 0,-255.26 2.77,-47.41 -9.22,-163.52 42.56,-184.38 -17.74,-42.51 15.97,-134.2 42.57,-177.28 -7.68,-50.95 25.62,-113.88 56.72,-148.91 -16.01,-30.79 5.25,-77.68 35.44,-85.09 -6.16,-13.08 0.4,-62.5 28.39,-63.84 -3.5,-22.35 12.76,-25.04 7.07,-49.62 178.83,-275.01 390.59,-517.08 694.94,-666.59 129.21,-21.1 247.28,-52.99 340.36,0 172.29,8.11 263.7,132.42 375.85,177.29 4.8,28.31 34.36,31.82 49.63,49.65 15.66,85.85 -132.18,203.92 -191.48,177.28 -14.89,5.83 -27.63,29.2 -42.53,14.17 -76.93,-62.72 -155.8,-48.59 -219.83,-113.45 19.36,-2.03 24.5,-11.09 56.72,-14.16 3.32,15.11 -10.12,13.49 -21.26,14.16 21.61,25.7 30.47,-21.07 63.83,-7.09 11.02,25.21 -24.1,4.29 -21.3,21.28 50.92,-5.87 121.73,-53.14 163.11,-92.19 -3.96,-14.45 -21.34,-13.89 -7.09,-28.36 -55.7,5.78 -123.79,-30.29 -191.46,-35.46 13.22,-22.41 38.84,-8.63 63.84,-7.1 -7.36,-20.63 -68.04,-30.75 -70.93,7.1 -46.4,-8.66 -56.36,-15.82 -99.29,0 -3.32,-15.13 10.17,-13.51 21.3,-14.17 -81.2,20.35 -199.79,70.07 -283.66,127.63 -32.06,48.67 -95.31,120.17 -148.92,170.17 -229.04,367.45 -438.95,826.52 -375.81,1361.5 29.77,26.12 4.78,63.59 35.45,85.09 2.97,14.83 -4.84,18.78 -7.1,28.39 3.1,10.51 9.09,-2.79 21.27,0 14.97,103.35 80.36,149.08 127.65,234 3.08,10.51 9.05,-2.79 21.27,0 -3.01,14.81 4.87,18.79 7.1,28.37 151.48,69.22 311.79,116.81 489.27,99.26 197.27,-19.47 363.78,-126.32 503.47,-212.74 84.76,-62.36 163.52,-166.63 269.46,-184.35 -5.3,-13.41 -21.14,-4.94 -7.09,-21.29 8.25,1.15 12.63,-1.56 14.19,-7.07 17.9,1.7 29.37,20.89 14.2,35.43 14.08,-0.09 9,-19.33 28.36,-14.17 -4.36,6.61 -16.51,26.14 7.08,21.27 -50.36,261.41 -239.44,419.76 -382.93,546.02 -20.26,-3.68 11.45,-10.49 14.19,-14.19zm-7169.13 -2566.98c25.11,3.26 26.89,29.86 56.75,28.37 0.64,28.15 -2.27,51.82 14.16,92.18 -16.81,-15.98 -16.32,25.34 -42.55,21.26 -2.8,17 32.32,-3.92 21.29,21.3 -35.26,-1.96 -72.33,31.37 -92.18,21.27 -29.58,6.78 10.75,42.35 -35.47,35.46 -3.43,-22.34 21.76,-16.07 14.2,-42.56 -24.23,-5.31 -9.03,28.82 -35.47,21.27 -6.23,-22.78 18.39,-14.68 21.27,-28.38 -17.54,-9.71 -43.83,-4.43 -77.99,0 14.75,-15.57 -13.07,-28.58 -28.36,-35.46 9.09,-54.15 31.16,-56.23 14.16,-99.25 25.4,-2.97 34.15,-22.62 35.46,-49.62 12.58,-1.62 35.53,7.12 28.37,-14.2 9.46,7.07 13.93,19.16 28.36,21.27 13.02,-7.71 17.69,-39.16 35.47,-21.27 -3.13,8.71 -9.06,14.57 -21.27,14.2 21.78,22.81 71.04,-23.5 85.09,7.07 -10.21,-7.94 -17.31,-7.66 -21.29,7.09zm11508.9 141.81c-7.07,1.34 -19.16,31.08 -21.27,14.21 22.14,-10.97 21.67,-44.52 28.37,-70.93 -38.62,-8.62 9.95,-28.71 -28.37,-42.53 5.42,-71.59 -57.56,-165.93 -106.38,-226.94 8.28,-1.17 7.7,-11.19 7.1,-21.26 -47.26,-9.46 -37.65,-75.8 -99.29,-70.92 17.59,-22.74 -30.65,-27.06 -28.36,-56.72 -37.33,-2.81 -35.03,-45.31 -77.99,-42.54 -168.63,-168.96 -437.86,-258.05 -709.11,-262.37 -69.97,-1.13 -139.4,-18.67 -212.74,-7.1 -80.51,12.69 -180.23,61.55 -234.01,42.57 6.21,-22.74 -10.91,-22.2 -21.27,-28.4 -1.84,11.05 -15.57,4.94 -21.26,0 -23.09,19.5 -16.97,68.12 -70.93,56.72 -6.61,34.84 -36.44,47.02 -21.26,85.13 -95.19,41.89 -181.2,92.97 -241.11,170.18 0,-3.96 -5.74,-8.05 -7.1,0 9.44,7.1 21.43,11.68 28.37,21.26 60.02,-16.27 132.45,-55.77 184.38,-56.73 -11.97,99.15 -28.62,181.4 -14.2,297.84 -49.72,230.62 -25.94,487.16 -63.82,709.1 5.53,1.59 13.99,0.21 14.2,7.11 -42.58,447.92 -73.96,818.23 -63.83,1269.31 10.01,18.34 42.05,14.68 35.46,49.62 53.27,-3.61 67.49,31.81 85.09,63.83 18.53,-6.66 53.84,-6.81 49.63,28.36 17.09,2.92 15.43,-12.96 35.47,-7.1 3.92,22.11 5.79,46.23 14.19,63.82 32.86,7.31 23.66,-21.38 42.53,-35.46 27.38,-20.39 76.38,-21.87 92.18,-35.43 45.62,-39.15 9.96,-106.73 42.56,-127.64 -10.29,-3.9 -36.67,8.27 -35.46,-7.1 11.71,-15.52 55.18,-9.87 70.93,-7.11 3.49,22.43 -35.21,2.67 -28.4,28.37 343.02,-11.3 583.54,-206.53 801.3,-368.73 20.06,5.86 18.38,-9.98 35.47,-7.09 27.57,-62.27 84.8,-94.85 134.74,-134.71 0,-9.47 0,-18.93 0,-28.37 291.71,-274.58 488.13,-815.47 404.19,-1262.25zm-212.74 212.75l0 0c-7.44,50.37 -4.53,96.88 -21.27,141.81 -10.61,28.54 -28.54,55.06 -35.46,85.09 -12.08,52.63 -51.33,98.43 -63.83,148.92 -5.22,21.12 -37.07,66.65 -42.53,78.02 -24.72,51.48 -53.52,123.72 -85.09,177.28 -17.89,30.26 -60.56,52.16 -70.91,77.99 -1.31,3.21 12.11,14.02 7.1,21.26 -14.12,20.28 -58.18,22.16 -42.56,56.72 -29.08,39.48 -73.18,63.96 -85.1,120.56 -36.96,-1.5 -23.25,47.66 -63.82,42.56 -160.45,234.26 -427.53,340.19 -673.66,475.11 -2.67,-66.83 46.2,-182.42 21.27,-219.84 41.66,-90.69 20.58,-228.15 49.66,-311.99 -0.2,-6.91 -8.68,-5.52 -14.19,-7.1 32.83,-360.73 60.38,-755.91 56.73,-1177.12 -1.13,-131.46 31.71,-247.83 -7.1,-375.82 15.09,-43.4 -7.3,-73.93 -21.27,-120.56 17.17,-23.48 24.67,22.04 56.73,7.1 6.02,1.31 6.69,-2.77 7.1,-7.1 -1.16,-8.31 -12.93,-5.97 -21.28,-7.1 17.17,-18.64 27.08,3.01 63.81,-14.19 -1.91,14.63 -31.41,1.71 -28.35,21.29 285.92,-9.4 487.17,15.36 723.29,106.37 4.39,-0.12 5.37,-3.68 5.94,-7.57 -0.37,28.97 68.35,41.6 100.41,64.29 171.59,121.41 216.46,353.19 191.48,602.75 26.46,7.54 11.22,-26.61 35.46,-21.29 -7.1,21.29 -21.27,35.5 -42.56,42.56zm382.91 524.73c-2.07,-18.95 27.54,18.85 21.31,-14.17 -4.68,-21.23 -15.18,6.79 -28.4,0 -42.65,-147.35 -110.25,-378.9 -49.63,-503.47 -39.7,21.82 -16.8,-44.72 0,-49.65 -38.84,-1.16 7.33,-45.07 14.19,-70.89 21.19,-80.1 38.99,-243.94 99.26,-290.73 -10.76,-35.53 7.91,-87.21 49.66,-92.2 -14.82,-26.11 3.67,-31.34 21.26,-42.56 -1.75,-8.92 -14.1,-7.12 -14.18,0 5.82,-65.15 53.43,-149.77 106.37,-191.44 -20.66,-32.52 17.66,-29.37 14.17,-63.83 11.46,-1.98 12.21,6.7 21.3,7.1 -2.43,-68.62 65.9,-66.47 85.09,-113.45 -24.24,-5.33 -9.04,28.79 -35.46,21.27 53.78,-74.62 121.29,-162.68 205.64,-184.38 -4.63,-7.22 -16.3,-7.33 -14.21,-21.26 13.54,-3.07 17.84,-15.3 35.47,-14.21 -5.88,22.78 -6.03,14.72 7.1,28.37 -2.59,-20.35 20.29,-54.24 42.53,-70.89 12.64,5.2 1.04,12.9 0,21.27 57.97,-66.58 148.39,-91.06 226.94,-120.56 0.9,12.73 -8.69,14.98 -7.1,28.36 62.35,-12.86 77.55,-62.02 148.91,-49.63 8.52,9.29 2.78,11.15 0,21.27 31.63,-26.37 63.97,-29.23 113.46,-35.46 5.5,6.32 7.61,16.01 7.1,28.36 33.26,-28.45 181.28,-19.64 205.64,28.36 149.98,-10.1 274.57,116.28 404.18,205.64 0,7.11 0,14.2 0,21.3 117.14,90.58 154.4,230.37 219.84,361.63 143.11,614.18 -35.44,1190.41 -375.82,1538.77 -6.27,-22.76 23.37,-9.7 21.27,-28.36 -27.19,1.64 -31.41,21.12 -21.27,42.56 -57.66,58.17 -134.03,97.61 -205.64,141.82 -20.94,-6.15 16.44,-10.62 7.07,-28.37 -29.07,-0.69 -12.36,44.38 -49.63,35.47 -11.03,-25.22 24.09,-4.31 21.26,-21.27 -1.04,-15.84 -17.86,9.17 -35.43,0 -13.34,12.51 8.42,20.68 -7.1,35.44 -23.48,1.46 -46.48,17.01 -56.73,-7.07 -11.46,29.88 -77.21,40.96 -92.18,7.07 8.17,28.85 -10.19,17.05 -63.83,21.28 3.75,-5.71 7.38,-11.51 7.1,-21.28 -13.5,10.24 -55.6,52.34 -63.82,0 -13.68,2.88 -5.61,27.49 -28.37,21.28 10.85,-21.81 -46.31,-21.81 -35.46,0 -8.31,-1.15 -5.97,-12.92 -7.1,-21.28 -26.42,-7.54 -11.22,26.6 -35.46,21.28 0,-7.09 0,-14.19 0,-21.28 -107.77,10.61 -182.67,-23.07 -290.73,-42.53 -11.8,-14.12 0.63,-9.04 0,-28.38 -23.18,35.27 -63.28,-4.15 -85.08,-14.19 111.66,-27.18 228.08,40.53 276.56,-7.07 42.41,25.94 69.36,-13.82 113.44,-21.29 2,11.45 -6.69,12.2 -7.09,21.29 22.9,6.34 9.98,-23.14 21.29,-28.39 30.96,5.48 55.29,-19.13 78,0 84.97,-47.38 189,-75.74 269.46,-127.62 161.58,-119.89 227.65,-302.33 304.9,-496.38 -0.17,-6.89 -8.66,-5.51 -14.16,-7.09 94.38,-167.84 85.29,-456.32 106.34,-659.48 -40.09,-139.84 -24.14,-247.17 -92.18,-361.65 -6.2,-22.78 18.41,-14.7 21.3,-28.38 -6.19,-20.94 -10.62,16.49 -28.37,7.1 -9.46,-85.51 -92.45,-118.64 -63.82,-177.27 -6.18,-20.95 -10.62,16.44 -28.37,7.1 -6.17,-27.44 17.32,-25.25 21.26,-42.56 -9.11,-19.83 -14.65,22.33 -35.46,14.19 -5.13,-51.59 -98.88,-82.26 -63.82,-127.65 -36.84,8.83 -126.98,-64.08 -127.62,-113.45 -91.38,-4.76 -189.45,-119.83 -297.83,-49.62 0,-7.1 0,-14.21 0,-21.31 -8.74,3.12 -14.57,9.09 -14.2,21.31 -14.45,-2.11 -13.91,-19.2 -28.36,-21.31 -7.9,8.75 -6.18,14.58 7.1,14.21 -151.34,29.42 -359.7,126.02 -460.9,269.46 -12.16,-1.49 -18.39,12.09 -21.31,0 -126.87,158.49 -241.38,380.93 -326.18,588.56 9.08,91.55 -35.84,208.38 -35.44,311.99 1,267.45 89.91,501.94 177.28,723.31 -7.27,6.93 -14.37,14.03 -21.3,21.27 12.24,25.01 11.61,-20.45 35.47,-7.1 11.85,33.65 7.03,69.34 35.46,70.92 2.59,12.06 -5.54,13.39 -14.2,14.16 53.32,20.47 40.57,86.98 85.12,92.2 2.22,28.25 -41.23,10.8 -49.66,28.36 4.36,8.45 47.73,-3.78 63.83,-7.07 6.78,21.59 28.18,28.51 21.26,63.8 59.27,8.71 119.81,72.74 148.92,134.75 20.05,5.86 18.38,-9.99 35.46,-7.1 80.96,77.99 213.8,131.95 354.55,127.64 1.99,11.46 -6.7,12.21 -7.1,21.27 34.4,-20.83 76.84,-23.4 106.39,-21.27 3.89,15.74 -13.56,10.1 -14.19,21.27 8.27,18.99 18.55,-18.46 28.36,-21.27 21.67,-5.13 25.85,7.26 42.56,7.1 -15.81,21.27 -32.79,0.35 -49.66,14.17 -5.05,19.25 33.45,-5.08 28.39,14.19 2.32,17.09 -53.47,33.65 -49.65,7.07 -272.39,34.46 -518.02,-105.5 -687.85,-255.26 -2,-11.46 6.72,-12.21 7.1,-21.27 -24.9,13.19 -23.32,-5.39 -42.53,-14.19 -2.92,-17.08 12.92,-15.41 7.07,-35.47 -10.63,-23.42 -17.35,14.75 -35.44,7.1 -4.09,-4.3 -16.62,-33.6 0,-35.46 -6.17,-20.95 -10.62,16.47 -28.36,7.1 -0.78,-17.63 -13.3,-21.96 0,-35.46 -22.34,3.4 -27.73,-10.09 -42.57,-14.17 -1.99,-11.45 6.7,-12.2 7.1,-21.29 -41.37,4.53 -56.73,-68.18 -92.19,-92.16 -6.23,-22.8 23.38,-9.73 21.28,-28.37 -21.85,-5.27 -13.62,19.45 -35.46,14.17 6.11,-12.44 26.42,-24.64 -7.08,-21.26 -0.31,-12.16 5.25,-18.39 14.17,-21.27 -1.03,-15.84 -17.87,9.18 -35.46,0 -25.71,-59.37 -56.3,-113.89 -85.1,-170.21zm1354.41 489.3l0 0c19.53,0.15 63.91,-11.1 42.56,-28.36 -2.05,21.56 -37.52,9.76 -42.56,28.36zm-11771.24 -2907.36c13.65,-0.73 -11.03,-26.43 7.07,-35.46 95.73,36.64 43.17,198.05 70.92,255.3 2.16,16.32 -20.5,7.87 -21.27,21.26 11.97,15.38 38.18,-42.04 56.73,-21.26 10.44,113.54 -55.89,310.49 -7.1,389.98 -56.55,366.28 -171.1,819.65 -234.01,1262.24 953.71,-258.06 1948.65,-505.72 2864.82,-709.11 164.69,-58.72 340.22,-95.94 496.38,-120.55 845.72,-215.55 1752.98,-440.92 2666.25,-659.49 15.16,-3.28 13.52,10.14 14.21,21.31 45.38,-19.83 109.7,-63.46 170.17,-63.84 46.49,-0.28 77.07,37.64 113.46,35.44 -10.86,41.17 -43.72,60.3 -78,78.02 -7.15,-21.33 15.79,-12.59 28.38,-14.2 -2.98,-15.96 -38.9,1.07 -35.47,-21.27 -14.72,1.82 -1.93,31.17 -14.2,35.47 -22.39,-9.79 -42.79,17.54 -49.63,0 -13.53,12.47 -26.18,25.82 -35.46,42.53 -12.12,0.31 -18.38,-5.26 -21.26,-14.16 -66.89,48.9 -150.97,80.64 -226.91,120.54 -26.98,-20.63 29.75,-16.96 28.36,-35.46 -61.63,-0.54 -64.68,65.79 -127.64,70.92 -36.85,2.97 6.6,-12.55 -21.28,7.07 -38.13,26.83 -106.29,33.02 -156,49.67 -113.46,37.94 -236.28,88.23 -354.57,113.45 2.25,-16.65 21.97,-15.88 28.37,-28.37 -24.46,-7.38 -53.8,16.33 -35.46,28.37 -1029.94,329.41 -2045.57,541.55 -2999.53,787.09 -185.96,36.88 -415.09,101.46 -638.21,141.83 0.61,-10.05 1.18,-20.09 -7.1,-21.27 -21.24,4.67 6.8,15.15 0,28.37 -167.09,55.69 -411.06,95.64 -616.93,148.91 -74.5,19.27 -157.31,94.93 -226.91,70.93 -98.67,76.71 -236.56,83.52 -354.55,120.54 -96.87,30.39 -181.29,92.36 -269.47,113.46 -48.24,-21.68 -99.31,25.68 -148.91,42.52 4.61,-7.21 16.3,-7.32 14.19,-21.25 -42.24,27.81 -61.05,27.19 -120.55,42.55 -4,5.11 13.91,7.73 14.17,7.07 -160.37,375.79 -233.57,917.86 -326.2,1326.06 -5.85,20.02 10.02,18.36 7.11,35.43 -117.72,554.9 -191.19,1082.19 -248.18,1630.97 -12.76,122.63 -34.58,280.94 -56.73,397.11 -39.95,548.77 -93.31,1011.53 -113.47,1531.69 -3.93,101.61 -20.52,202.86 -28.37,304.92 -6.29,82.09 5.56,172.26 -35.43,248.18 15.9,39.47 14.54,76.6 0,127.64 -15.15,3.32 -13.51,-10.12 -14.19,-21.27 -25.2,26.41 -18.27,46.44 -49.64,49.63 9.27,29.95 33.25,-8.65 63.83,0 -13.42,75.59 -55.92,79.2 -113.48,106.36 20.4,-24.54 30.27,-59.55 49.65,-85.1 -40.45,-2.62 -63.54,12.13 -70.92,42.57 -12.72,-34.59 -9.93,0.5 -49.63,-7.1 32.78,-31.94 55.14,-48.79 63.83,-92.19 -31.89,-18.23 -30.82,27.56 -70.92,21.26 -1.97,-27.92 30.32,-21.66 28.35,-49.62 -20.01,-1.1 -17.77,20.05 -28.35,28.36 -28.68,-12.41 37.39,-47.29 -14.2,-42.55 35.69,-4.13 44.23,-15.04 70.92,-14.18 -33.38,-16.99 -7.31,-21.66 0,-49.62 -25.13,-1.53 -14.02,33.26 -42.53,28.36 -3.44,-22.33 21.76,-16.07 14.16,-42.55 -28.16,8.16 -7.15,49.74 -28.35,49.62 -15.06,-32.49 13.12,-29.34 0,-63.79 -11.15,3.02 -6.07,22.29 -28.37,14.17 14.83,-15.91 23.31,-38.16 56.72,-35.47 -6.92,-7.24 -14.02,-14.35 -21.26,-21.26 5.51,-32.3 38.29,-37.35 49.63,-63.83 -37.19,19.53 -63.54,49.92 -99.28,70.93 6.43,-38.5 60.09,-29.72 63.82,-70.93 -15.46,-10.31 -28.85,28.89 -70.89,14.19 -0.95,-17.48 -1.1,-34.15 7.07,-42.55 19.45,6.4 -13.83,26.11 14.19,28.36 10.24,-27.55 24.99,-50.64 42.56,-70.9 -34.16,16.6 -34.68,29.12 -70.92,35.44 -4.53,-37.63 39.73,-26.44 42.53,-56.73 -24.21,-5.31 -9.01,28.83 -35.43,21.29 0,-14.19 0,-28.39 0,-42.55 22.93,-8.78 5.42,22.93 28.36,14.16 -5.37,-34.91 -29.83,-18.46 -49.65,-28.33 9.23,-75.29 -1.05,-163.2 -14.17,-226.93 9.11,-83.3 6.34,-211.11 0,-290.73 -1.05,-17.61 -1.33,-34.43 14.17,-35.46 -35.61,-170.56 24.31,-341.2 7.09,-489.28 48.53,-487.66 60.65,-1055.74 148.92,-1517.5 -8.98,-23.84 -11.25,-75.12 14.18,-85.1 -9.74,-43.75 -3.37,-123.36 21.28,-170.18 -4.51,-179.24 65.14,-372.22 70.92,-581.49 39.58,-132.04 42.76,-219.49 63.8,-368.72 33.81,-239.65 88.83,-486.51 141.81,-702.02 19.68,-79.9 18.78,-176.3 35.45,-255.3 21.51,-101.71 42.13,-231.52 70.93,-333.26 -15.08,-30.18 -77,-7.42 -77.99,21.27 -82.06,9.2 -140.93,31.85 -205.66,70.92 -74.71,-15.7 -197.17,62.64 -290.73,63.79 -5.97,17.66 -22.57,24.7 -35.44,35.46 -22.94,8.77 -5.42,-22.93 -28.4,-14.17 -0.28,35.44 -28.45,-6.54 -42.53,42.53 -34.94,-22.3 -30.14,22.65 -63.81,21.26 0.2,-6.88 8.68,-5.47 14.19,-7.07 -98.77,19.25 -155.46,89.32 -262.4,106.37 3.12,10.54 9.09,-2.8 21.29,0 -8.87,9.63 -66.91,44.49 -49.62,14.19 -9.18,22.22 -40.12,32.11 -70.92,49.63 -15.99,-43.02 -83.88,51.62 -120.56,56.73 -4.41,0.6 -9.11,-13.36 -7.09,-14.17 -27.68,11.14 -29.84,24.75 -56.73,28.33 -30.3,4.04 -47.52,36.62 -56.72,49.67 -10.3,-3.15 0.71,-6.23 0,-14.21 -260.09,166.53 -486.51,422.43 -546.04,744.59 -17.63,-1.1 -21.93,11.12 -35.43,14.19 6.2,25.1 0.86,17.43 7.1,42.53 -10.34,3.89 -36.68,-8.29 -35.46,7.09 -5.09,11.48 33.43,11.48 28.36,0 19.62,3.06 0.34,22.3 -14.2,14.2 -0.89,12.69 8.69,14.95 7.1,28.33 35.89,-29.52 -3.58,17.81 21.27,42.56 -22.94,-29.02 -27.44,5.29 -56.73,7.11 4.68,21.23 15.15,-6.78 28.36,0 -2.08,23.88 -31.45,20.57 -35.46,42.52 2.28,23.51 21.97,-27.64 28.37,0 -0.64,23 -24.39,22.88 -35.44,35.46 -15.64,-5.65 -28.33,-14.22 -28.36,-35.46 -16.74,10.42 -13.21,14.99 -35.46,7.1 -8.68,-30.03 -0.47,-36.03 14.17,-56.73 -5.86,-35.11 -24.85,16.48 -35.46,-7.1 -6.32,-22.87 23.14,-9.95 28.39,-21.25 -24.22,-11.98 -52.72,-56.42 -14.2,-70.93 -0.78,-25.1 -23.44,15.09 -21.26,-7.07 -4.87,-19.08 14.66,-13.7 21.26,-21.29 -45.57,9.31 -23.72,-188.65 7.1,-177.28 3.31,-15.12 -10.16,-13.51 -21.29,-14.17 26.98,-49.08 -1.85,-39.93 28.39,-63.82 -34.86,-18.15 -15.76,-53.84 0,-78 -3.75,-10.94 -7.42,-0.45 -7.1,7.07 -34.86,-44.05 44.75,-113.07 28.36,-177.28 57.38,-54.67 61.95,-141.41 141.82,-184.34 5.54,-47.35 57.13,-107.68 113.45,-127.65 2.91,-8.8 8.08,-20.64 21.29,-35.46 15.7,-3.89 10.08,13.56 21.27,14.19 197.74,-227.74 513.68,-337.24 787.1,-489.31 77.73,2.63 182.62,-75.88 269.47,-106.34 37.54,-13.19 82.96,-12.01 120.55,-28.36 11.2,-4.88 16.85,-22.02 28.37,-28.37 43.16,-23.86 135.99,-28.77 205.64,-56.72 40.86,-16.43 86.67,-54.77 113.45,-56.74 4.31,-0.31 15.55,13.82 14.19,14.17 89.25,-23.75 164.45,-78.89 248.18,-99.28 20.74,-155.1 59.99,-372.02 106.39,-503.44 18.2,-202.44 68.52,-295.41 77.99,-475.11 21.4,0.02 2.36,-33.24 28.36,-42.56 -12.24,-4.3 0.54,-33.65 -14.17,-35.46 46.91,-65.9 27.47,-143.67 63.8,-212.71 -14.32,-71.53 32.43,-123.18 42.55,-184.38 9.99,-60.42 -10.76,-142.72 42.53,-205.64 -4.57,-7.22 -16.27,-7.36 -14.16,-21.3 32.89,-7.3 10.24,-70.11 35.46,-85.09 -19.5,-101.8 39.21,-140.34 35.46,-255.26 37.8,-4.73 37.22,-47.87 70.89,-56.73 -13.58,-10.82 -40.79,25.07 -63.82,28.36 4.38,-26.34 16.91,-44.55 21.29,-70.93 16.59,1.82 4.07,31.17 0,35.46 32.56,-36.7 26.17,-84.48 42.53,-127.64 7.65,-18.69 49.11,-18.69 56.73,0 25.16,-21.23 20.44,-45.41 42.57,-42.53 28.67,12.41 -37.4,47.28 14.17,42.53 -8.2,20.16 -14.64,42.11 -42.55,42.56 -18.43,-18.64 11.47,-5.6 7.11,-28.37 -32.67,3.89 -29.06,32.55 -14.2,49.63 -29.35,-3.35 -18.84,33.19 -28.37,49.67 32.35,-0.44 19.16,0.63 63.84,-7.11 9.11,16.71 -0.93,13.2 7.09,35.47 28.42,-2.31 17.97,-43.49 42.54,-49.67 -1.06,28.4 18.19,61.73 0,85.1 8.24,-1.14 12.62,1.58 14.19,7.1zm-156.02 -78l0 0c-3.03,-19.59 26.44,-6.66 28.36,-21.29 -10.61,-1.22 -26.16,2.54 -28.36,-7.07 0.18,-23.83 38.29,-46.34 21.27,-63.83 -21.15,28.2 -44.32,62.18 -21.27,92.19zm-992.74 7934.95l0 0c21.09,1.71 9.29,29.09 7.07,49.67 10.3,-3.9 36.67,8.27 35.45,-7.11 -12.71,0.93 -16.58,-7.06 -14.17,-21.29 20.9,7.67 46.67,-34.46 28.37,-21.27 -0.11,9.3 -19.67,9.04 -21.29,0 10.79,-15.48 55.45,-33.96 42.55,-49.63 -27.83,29.81 -69.3,9.38 -77.98,49.63zm8365.63 -14531.6c0,436.23 0.01,866.22 0.85,1378.62 -758.73,0 -1517.5,0 -2276.25,0 -16.56,328.56 -2.36,687.85 -7.09,1028.2 673.65,0 1354.92,-1.14 2028.56,-1.14 0,468.22 0,560.84 -0.52,1426.46 -676.01,0 -1352.02,0 -2028.04,0 0,390.02 0,780.04 0,1170.04 763.47,0 1526.94,0 2290.41,0 0,458.56 0,917.13 0,1375.68 -1326.03,0 -2652.04,0 -3978.09,0 -7.93,-2040.95 -2.46,-4315.11 -2.71,-6377.86l3972.88 0zm-246.3 8787.81c16.73,10.39 8.01,54.73 -21.26,42.53 6.27,-14.97 21.56,-20.94 21.26,-42.53zm-1446.59 -141.83c12.72,-0.91 14.94,8.67 28.36,7.09 2.45,34.79 -17.63,54.85 -42.56,42.56 -14.19,-15.07 10.07,-31.6 14.2,-49.65zm-7169.14 -113.47c5.99,64.9 -64.2,35.67 -92.16,21.3 0.58,-49.71 57.36,-30.47 92.16,-21.3zm-404.18 -99.25c31.73,12.95 69.56,42.27 106.35,28.36 12.6,62.23 -35.2,64.06 -42.53,106.36 -50.35,-35.14 -112.25,-50.87 -163.12,-99.29 44.93,-6.52 81.15,17.45 99.3,-35.43zm-7.11 7.07c-7.06,0 -14.16,0 -21.27,0 -8.3,1.15 -5.97,12.95 -7.09,21.29 -17.74,1.18 -22.19,-10.91 -28.37,-21.29 -3.34,-22.25 19.11,-18.73 21.31,-35.43 9.4,14.19 30.75,16.47 35.42,35.43zm3751.2 -99.27c0.23,21.5 -24.87,17.68 -42.53,21.29 4.1,-17.18 26.79,-15.76 42.53,-21.29zm744.57 -184.36c-10.66,20.05 -36.75,24.69 -63.82,28.36 12.64,-18.12 38.69,-22.76 63.82,-28.36zm7204.58 -319.1c9.9,-18.44 36.71,5.17 49.66,7.09 -13.54,22.08 -30.79,-11.1 -49.66,-7.09zm-4566.67 -354.55c-13.53,10.09 -30.78,16.48 -49.65,21.26 5.36,-18.27 22.65,-24.64 49.65,-21.26zm1347.3 -553.13c12.43,6.49 24.65,13.19 21.3,35.46 18.9,0 37.8,0 56.72,0 6.99,16.65 12.44,34.85 14.18,56.72 -36.63,48.48 -90.24,-0.05 -134.73,-21.26 9,-28.83 31.37,-44.27 42.53,-70.92zm-6495.46 -368.73c1.3,10.42 38.21,-9.49 35.47,21.26 -15.79,-3.05 -38.47,-16.27 -42.57,7.1 -9.32,-2.51 -11.13,-12.49 -21.26,-14.19 -1.09,-17.63 11.14,-21.93 14.2,-35.44 17.57,1.05 34.38,1.31 35.44,-14.19 22.2,9.12 3.65,14.66 14.19,35.46 -17.35,-1.53 -25.92,-28.81 -35.47,0zm-35.46 -141.81c-16.39,22.91 2.57,37.1 -28.36,42.53 12.83,-10.8 -1.32,-48.62 28.36,-42.53zm9778.65 -6419.38l0 4689.13c768.22,0 1536.45,0 2304.62,0 0,564.93 0,1129.85 0,1694.79 -1328.4,0 -2656.78,0 -3985.21,0 0,-2124.95 0,-4249.99 0,-6374.91 -0.19,-3.1 -0.36,-6.19 -0.29,-9.01l1680.88 0zm-8963.15 -12.27c560.2,0 1120.39,0 1680.59,0 0,2132.07 0,4264.11 0,6396.19 -562.56,0 -1125.12,0 -1687.68,0 0,-2124.95 0,-4249.99 0,-6374.91 -0.62,-10.07 -1.19,-20.08 7.09,-21.28z"/>
    </symbol>
    <symbol viewBox="0 0 100 125" id="user">
        <title>User</title>
        <path d="M50,48.5c7.9,0,14.2-6.4,14.2-14.2S57.9,20,50,20s-14.2,6.4-14.2,14.2S42.1,48.5,50,48.5z M50,22c6.8,0,12.2,5.5,12.2,12.2  c0,6.8-5.5,12.2-12.2,12.2c-6.7,0-12.2-5.5-12.2-12.2C37.8,27.5,43.3,22,50,22z M78.1,80h-2c0-14.4-11.7-26.1-26.1-26.1  c-14.4,0-26.1,11.7-26.1,26.1h-2c0-15.5,12.6-28.1,28.1-28.1S78.1,64.5,78.1,80z"/>
    </symbol>
    <symbol viewBox="0 0 9000 4000" id="ibm">
        <title>IBM</title>
          <path d="M8709.26 3474.26c33.8,0 83.36,5.64 83.36,-42.79 0,-37.18 -30.44,-41.67 -59.7,-41.67l-68.13 0 0 84.46 44.47 0zm-7030.28 -77.74c0,0 -0.7,237.21 0,237.21 0.7,0 -1606.12,0.3 -1606.59,-0.22 -0.08,-0.1 -0.12,-8.48 -0.13,-22.04l0 -3.49 0 -3.7 0 -3.9 0 -4.07c0.05,-66.64 0.44,-199.47 0.13,-199.47 -0.44,0 1605.89,0.42 1606.59,-0.32zm4119.74 237.01l-1131.17 0 0 -237.12 1131.17 0 0 237.12zm-3910.12 0.2l0 -236.89c0,0 2321.15,0.29 2327.75,0.29 -155.82,149.05 -366.77,236.4 -599.94,236.4l-1727.81 0.2zm6444.83 -0.2l-1131.15 0 0 -237.08 1131.15 0 0 237.08zm-1816.95 -0.54l-31.76 0 -80.79 -236.54 195.44 0 -82.89 236.54zm-2056.68 -681.43c-16.95,77.88 -32.43,172.77 -89.32,236.02l-21.22 -0.07 -2460.37 0 0 -235.95 2570.91 0zm-4387.41 0l0 235.95 1606.59 0c0.7,0.42 -0.7,-235.79 0,-235.79 0.7,0 -1608.45,-0.16 -1606.59,-0.16zm6600.62 236.02l-345.35 0 -82.86 -236.02 508.09 0 -79.88 236.02zm-874.29 0l-1131.17 0 0 -236.02 1131.17 0 0 236.02zm2534.71 0l-1131.15 0 0 -235.99 1131.15 0 0 235.99zm-7121.89 -435.82l-689.82 0 0 -235.99 689.82 0 0 235.99zm3233.62 -235.95c33.86,71.12 37.23,155.75 44.01,237.08l-741.76 0 0 -237.08 697.75 0zm-2091.04 235.95c0,0.97 -0.07,-235.93 -0.03,-235.95l700.08 0c0,0 0.63,236.11 0,236.11 -0.66,0 -700.05,-0.34 -700.05,-0.16zm4471.04 1.13c0.17,-0.97 83.39,-237.25 84.72,-237.08l-818.83 0c-1.47,-0.07 83.91,236.11 83.91,236.11 0.01,0 650.03,1.98 650.2,0.97zm-1026.41 -1.11l-678.48 0 0 -235.97 678.48 0 0 235.97zm2079.75 0.03l-676.22 0 0 -235.98 676.22 0 0 235.98zm-6666.96 -444.91l0 -236 -689.82 0c0,0 0.16,235.93 0,235.93 -0.15,0 689.46,0.07 689.82,0.07zm1142.53 -235.96l1780.57 0c81.29,67.72 154.69,151.33 212.28,236 3.24,-0.11 -1992.8,0.09 -1992.8,0 0,-0.11 -0.05,-235.75 -0.05,-236zm4711.64 0.03c-3.07,-0.3 -79.15,235.86 -82.42,235.97l-963.25 0.41c-0.72,-0.41 -84.65,-236.68 -84.72,-236.38l1130.39 0zm-1266.96 0l-678.44 0 0 235.97c-0.34,-0.11 678.58,0.09 678.58,0 0,-0.11 0.8,-235.97 -0.14,-235.97zm2079.78 235.97l-676.18 0 0 -235.96 676.18 0 0 235.96zm-6666.95 -444.9l-690.98 0 0 -235.97 690.98 0 0 235.97zm1142.54 -235.95l1980.36 0 0 -0.09c-43.35,79.08 -121.93,175.12 -196.43,236.08 0,-0.01 -1783.93,0.34 -1783.93,0 0,-0.31 0.04,-235.5 0,-235.99zm3444.6 55.97c0,0 0.17,179.71 0.03,180.02l-678.44 -0.01 0 -235.93 1257.83 0 84.45 235.97c0,0 -600.84,0.5 -600.84,0l-63.03 -180.05zm809.89 -55.94l1269.92 0 0 235.99 -676.18 0c-0.07,1.92 -0.41,-179.74 -0.41,-179.74 0.01,0 -62.69,179.4 -62.76,179.74l-609.28 0 78.71 -235.99zm-3564.61 -199.86l-689.84 0 0 -237.09 689.84 0 0 237.09zm-1832.42 0l-690.98 0 0 -235.95 690.98 0 0 235.95zm3258.4 -237.09c0,81.3 -10.18,165.99 -33.87,237.12l-701.14 0 0 -237.12 735.01 0zm1754.3 0.05l83.69 237.11 -1187.63 0 0 -237.11 1103.94 0zm539.05 0.05l-82.99 237.06 1198.23 0c0.39,-0.58 -0.48,-236.74 0,-236.74l-1115.24 -0.32zm-5083.09 -208.98l-1607.77 0 0 -235.97 1607.77 0 0 235.97zm2702.79 -235.97c30.53,77.93 66.63,144.51 66.63,235.97l-2560.69 0 0 -235.97 2494.06 0zm1767.35 236.33l-1482.73 0 -0.04 -236.28 1398.65 0 84.12 236.28zm2183.14 -0.29l-1495.21 0c0,0 82.25,-235.84 81.71,-235.95l1413.5 0 0 235.95zm-6653.3 -444.95l-1607.75 0 0 -237.08 1607.75 0 0 237.08zm1973.43 -237.08c210.45,20.31 393.37,95.29 549.19,237.54 0,0 -2314.24,0.3 -2314.24,0 0,-0.26 0,-237.57 0,-237.57l1765.05 0.03zm1014 0.06l1241.09 -0.13 83.41 237.66c0.57,-0.31 -1324.06,0.31 -1324.06,0 0,-0.31 -0.85,-237.53 -0.44,-237.53zm3665.85 237.13l-1339.4 0 84.15 -237.12 1255.25 0 0 237.12zm487.84 3071.63l-34.93 0 -68.14 -109.82 -53.48 0 0 109.82 -29.3 0 0 -238.2 104.17 0c63.1,0 84.52,23.65 84.52,63.08 0,46.73 -32.7,64.2 -74.95,65.3l72.11 109.82zm72.62 -119.36c0,-103.63 -75.45,-184.73 -179.06,-184.73 -104.17,0 -180.19,81.1 -180.19,184.72 0.01,104.73 76.02,185.76 180.19,185.76 103.61,0 179.05,-81.03 179.06,-185.75zm-393.03 0c0,-117.15 95.72,-212.85 213.97,-212.85 117.66,0 212.85,95.7 212.85,212.84 0,118.22 -95.2,213.96 -212.85,213.96 -118.25,0 -213.97,-95.74 -213.97,-213.95z"/>
    </symbol>
   </svg>