<?xml version="1.0" encoding="UTF-8"?>
<!DOCTYPE svg PUBLIC "-//W3C//DTD SVG 1.1//EN" "http://www.w3.org/Graphics/SVG/1.1/DTD/svg11.dtd">
<!-- Creator: CorelDRAW 2017 -->
<svg xmlns="http://www.w3.org/2000/svg" xml:space="preserve" width="270mm" height="70mm" version="1.1" style="shape-rendering:geometricPrecision; text-rendering:geometricPrecision; image-rendering:optimizeQuality; fill-rule:evenodd; clip-rule:evenodd"
viewBox="0 0 27000 7000"
 xmlns:xlink="http://www.w3.org/1999/xlink">
 <defs>
  <style type="text/css">
   <![CDATA[
    .str0 {stroke:#373435;stroke-width:20;stroke-miterlimit:22.9256}
    .str1 {stroke:#373435;stroke-width:7.62;stroke-miterlimit:22.9256}
    .fil3 {fill:none}
    .fil0 {fill:#FFF212}
    .fil2 {fill:#84716B}
    .fil1 {fill:#00AFEF}
   ]]>
  </style>
 </defs>
 <g id="Camada_x0020_1">
  <metadata id="CorelCorpID_0Corel-Layer"/>
  <path class="fil0" d="M9337.99 3531.49l351.05 -1255.91 171.5 0 280.02 -1141.74 917.01 0 -35.45 228.35 953.2 0 -284.8 2169.3 -2352.53 0zm8278.89 1.42l-351.05 -1255.91 -171.5 0 -280.02 -1141.74 -917.01 0 35.45 228.35 -953.2 0 284.8 2169.3 2352.53 0zm-5384.94 -1.42l227.05 -2169.3 2082.41 0 202.02 2169.3 -682.39 0 -9.92 -570.87 -1141.24 0 -16.31 570.87 -661.62 0z"/>
  <path class="fil1" d="M2599.54 3866.13l1814.77 -2732.29 -2201.07 0 -2102.08 200.58 -6.33 282.17 1160.22 1387.11 214.04 -60.59 620.38 643.36 113.77 165.48 63.65 114.18 322.65 0zm21744.79 -1.89l-1814.77 -2732.29 2201.07 0 2102.08 200.58 6.33 282.17 -1160.22 1387.11 -214.04 -60.59 -620.38 643.36 -113.77 165.48 -63.65 114.18 -322.65 0z"/>
  <path class="fil2" d="M18154.98 3532.93l-664.64 -2397.65 2068.43 0 1226.06 2732.29 -1978.05 0 -163.77 -334.64 -488.03 0zm-9357.94 0l664.64 -2397.65 -2068.43 0 -1226.06 2732.29 1978.05 0 163.77 -334.64 488.03 0zm-1834.99 -2397.65l-2146.78 0 -1684.93 2732.29 2440.02 0 1391.69 -2732.29zm13027.92 0l2146.78 0 1684.93 2732.29 -2440.02 0 -1391.69 -2732.29z"/>
  <path class="fil3 str0" d="M12931.82 3679.98l10.58 -645.6 1074.45 0 5.05 645.6m-3909.04 -2431.96l926.98 0m6612.73 2284.91l-2390.78 0m1549.96 -2397.64l-917.01 0m1725.27 2283.47l-2373.21 0m2339.35 -114.18l-2354.34 0m2319.74 -114.16l-2334.73 0m2299.64 -114.18l-2314.63 0m2279.15 -114.18l-2294.14 0m2258.38 -114.17l-2273.37 0m2237.35 -114.18l-2252.34 0m2216.13 -114.18l-2231.12 0m2194.72 -114.16l-2209.71 0m2173.14 -114.18l-2188.13 0m2151.38 -114.17l-2166.37 0m1964.16 -114.18l-1979.15 0m1951.45 -114.18l-1966.44 0m1938.74 -114.16l-1953.72 0m1926.01 -114.18l-1941 0m1913.3 -114.16l-1928.29 0m1900.59 -114.19l-1915.58 0m1887.88 -114.18l-1902.87 0m1875.17 -114.16l-936.96 0 -953.2 0m1862.46 -114.18l-926.98 0m-6612.73 2282.04l2390.78 0m541.42 0l671.54 0m1147.63 0l692.31 0m-4602.86 -2397.65l917.01 0m-1725.27 2283.47l2373.21 0m538.38 0l659.59 0m1147.63 0l681.68 0m-5366.63 -114.16l2354.34 0m535.34 0l647.64 0m1147.63 0l671.04 0m-5321.39 -114.18l2334.73 0m532.3 0l635.69 0m1147.63 0l660.41 0m-5275.67 -114.18l2314.63 0m529.26 0l623.74 0m1147.63 0l649.78 0m-5229.56 -114.17l2294.14 0m526.22 0l2398.57 0m-5183.17 -114.18l2273.37 0m523.18 0l2375.98 0m-5136.51 -114.18l2252.34 0m520.14 0l2353.4 0m-5089.67 -114.16l2231.12 0m517.1 0l2330.82 0m-5042.64 -114.16l2209.71 0m514.06 0l2308.24 0m-4995.44 -114.19l2188.13 0m511.02 0l2285.65 0m-4948.05 -114.18l2166.37 0m507.98 0l2263.07 0m-4735.21 -114.18l1979.15 0m504.94 0l2240.49 0m-4696.88 -114.16l1966.44 0m501.9 0l2217.9 0m-4658.54 -114.16l1953.72 0m498.87 0l2195.32 0m-4620.2 -114.18l1941 0m495.83 0l2172.74 0m-4581.87 -114.19l1928.29 0m492.79 0l2150.16 0m-4543.54 -114.16l1915.58 0m489.75 0l2127.57 0m-4505.2 -114.18l1902.87 0m486.71 0l2104.99 0m-4466.87 -114.16l936.96 0 953.2 0m483.67 0l2082.41 0m5068.6 -112.75l-2088.01 0m9319.16 86.42l-2086.71 -200.39m-24643.28 198.94l2086.71 -200.38m15.37 2397.45l608.57 0m-608.57 106.29l537.97 0m-537.97 228.35l386.3 0m-386.3 -114.18l462.14 0m-462.14 -2618.11l2201.07 0m-2201.07 2283.47l684.4 0m-684.4 -114.16l760.24 0m-760.24 -114.18l836.07 0m-836.07 -114.18l911.91 0m-911.91 -114.17l987.74 0m-987.74 -114.18l1063.57 0m-1063.57 -114.18l1139.41 0m-1139.41 -114.16l1215.24 0m-1215.24 -114.16l1291.07 0m-1291.07 -114.19l1366.9 0m-1366.9 -114.18l1442.74 0m-1442.74 -114.18l1518.57 0m-1518.57 -114.16l1594.4 0m-1594.4 -114.16l1670.24 0m-1670.24 -114.18l1746.07 0m-1746.07 -114.19l1821.9 0m-1821.9 -114.16l1897.74 0m-1897.74 -114.18l1973.57 0m-1973.57 -114.16l2049.4 0m-2049.4 -114.18l2125.24 0m-2239.01 2338.45l158.1 -60.97m-2149.57 -2050.18l2092.71 -227.41m-2095.88 368.69l2098.72 -254.82m-2029.95 386.82l2032.8 -272.91m-1924.39 397.57l1927.23 -283.7m-1820.74 406.16l1823.58 -292.29m-1719 412.55l1721.84 -298.67m-1619.12 416.79l1621.97 -302.92m-1521.08 418.93l1523.93 -305.04m-1424.88 418.96l1427.72 -305.07m-1330.42 416.96l1333.26 -303.09m-1237.7 412.95l1240.54 -299.08m-1146.71 406.99l1149.55 -293.1m-1057.41 399.07l1060.25 -285.2m-969.77 389.24l972.62 -275.36m-656.49 309.95l659.33 -196.08m-568.59 292.04l571.44 -178.15m-482.5 272.23l485.34 -158.34m-398.14 250.56l400.98 -136.69m-315.49 227.12l318.34 -113.24m-234.56 201.86l237.4 -87.99m22469.57 119.88l-608.57 0m608.57 106.29l-537.97 0m537.97 228.35l-386.3 0m386.3 -114.18l-462.14 0m462.14 -2618.11l-2201.07 0m2201.07 2283.47l-684.4 0m684.4 -114.16l-760.24 0m760.24 -114.18l-836.07 0m836.07 -114.18l-911.91 0m911.91 -114.17l-987.74 0m987.74 -114.18l-1063.57 0m1063.57 -114.18l-1139.41 0m1139.41 -114.16l-1215.24 0m1215.24 -114.16l-1291.07 0m1291.07 -114.19l-1366.9 0m1366.9 -114.18l-1442.74 0m1442.74 -114.18l-1518.57 0m1518.57 -114.16l-1594.4 0m1594.4 -114.16l-1670.24 0m1670.24 -114.18l-1746.07 0m1746.07 -114.19l-1821.9 0m1821.9 -114.16l-1897.74 0m1897.74 -114.18l-1973.57 0m1973.57 -114.16l-2049.4 0m2049.4 -114.18l-2125.24 0m1222.62 2619.56l-2440.02 0m3471.18 -279.66l-158.1 -60.99m2149.57 -2050.17l-2092.71 -227.41m2095.88 368.68l-2098.72 -254.8m2029.95 386.8l-2032.8 -272.91m1924.39 397.59l-1927.23 -283.72m1820.74 406.17l-1823.58 -292.28m1719 412.54l-1721.84 -298.67m1619.12 416.78l-1621.97 -302.9m1521.08 418.91l-1523.93 -305.04m1424.88 418.98l-1427.72 -305.09m1330.42 416.98l-1333.26 -303.11m1237.7 412.97l-1240.54 -299.1m1146.71 407l-1149.55 -293.11m1057.41 399.07l-1060.25 -285.18m969.77 389.23l-972.62 -275.35m656.49 309.95l-659.33 -196.08m568.59 292.02l-571.44 -178.15m482.5 272.24l-485.34 -158.35m398.14 250.57l-400.98 -136.68m315.49 227.1l-318.34 -113.23m234.56 201.86l-237.4 -87.98m-1082.26 119.87l-2404.11 0m-576.54 0l-2479.69 0m5525.88 106.29l-2415.51 0m-582.99 0l-2007.88 0m2110.35 228.36l-1978.05 0m4944.49 -114.18l-2427.77 0m-589.91 0l-1999.57 0m3402.73 -2618.11l-2146.78 0m-431.2 0l-2068.43 0m6054.57 2283.47l-2391.85 0m-569.62 0l-2460.11 0m5351.17 -114.18l-2379.6 0m-562.7 0l-2440.52 0m5312.41 -114.16l-2367.34 0m-555.78 0l-2420.94 0m5273.65 -114.18l-2355.09 0m-548.86 0l-2401.35 0m5234.9 -114.18l-2342.84 0m-541.94 0l-2381.77 0m5196.14 -114.17l-2330.58 0m-535.02 0l-2362.19 0m5157.38 -114.18l-2318.33 0m-528.1 0l-2342.6 0m5118.62 -114.18l-2306.07 0m-521.18 0l-2323.02 0m5079.87 -114.16l-2293.83 0m-514.25 0l-2303.44 0m5041.11 -114.18l-2281.57 0m-507.33 0l-2283.86 0m5002.35 -114.17l-2269.32 0m-500.41 0l-2264.26 0m4963.58 -114.18l-2257.06 0m-493.49 0l-2244.69 0m4924.83 -114.18l-2244.81 0m-486.56 0l-2225.1 0m4886.07 -114.16l-2232.56 0m-479.64 0l-2205.52 0m4847.31 -114.18l-2220.31 0m-472.72 0l-2185.93 0m4808.55 -114.16l-2208.05 0m-465.8 0l-2166.35 0m4769.8 -114.19l-2195.8 0m-458.88 0l-2146.77 0m4731.03 -114.18l-2183.54 0m-451.96 0l-2127.18 0m4692.28 -114.16l-2171.29 0m-445.04 0l-2107.6 0m4653.52 -114.18l-2159.04 0m4056.26 2333.48l-389.45 0m-20867 -1.43l389.45 0m2530.61 0l481.59 0m2590.76 0l368.32 0m2561.45 0l406.39 0m-9398.72 106.29l393.51 0m2543.89 0l486.76 0m-656.97 342.5l503.46 0m-3421.36 -114.16l402.23 0m2572.4 0l497.9 0m-3397.17 -114.18l397.86 0m2558.15 0l492.33 0m-1720.42 -2618.11l297.92 0m2231.16 0l363.48 0m2170.58 0l541.45 0m1045.51 0l3698.79 0m-11855.96 2283.47l385.09 0m2516.36 0l476.02 0m2570.69 0l370.2 0m2542.23 0l405.42 0m-9190.65 -114.18l380.73 0m2502.09 0l470.46 0m2550.62 0l372.08 0m2523.01 0l404.46 0m-9128.1 -114.16l376.37 0m2487.84 0l464.89 0m2530.55 0l373.95 0m2503.8 0l403.49 0m-9065.53 -114.18l372.01 0m2473.58 0l459.32 0m2510.49 0l375.82 0m2484.59 0l402.51 0m-9002.97 -114.16l367.65 0m2459.32 0l453.76 0m2490.42 0l377.7 0m2465.37 0l401.54 0m-8940.41 -114.18l363.3 0m2445.05 0l448.2 0m2470.35 0l379.58 0m2446.15 0l400.57 0m-8877.85 -114.19l358.95 0m2430.79 0l442.63 0m2450.29 0l381.45 0m2426.94 0l399.6 0m-8815.29 -114.16l354.58 0m2416.53 0l437.07 0m2430.22 0l383.33 0m2407.72 0l398.63 0m-8752.73 -114.16l350.22 0m2402.28 0l431.5 0m2410.15 0l385.2 0m2388.51 0l397.66 0m-8690.17 -114.18l345.87 0m2388.01 0l425.94 0m2390.08 0l387.08 0m2369.3 0l396.68 0m-8627.61 -114.18l341.51 0m2373.76 0l420.37 0m2370.02 0l388.95 0m2350.08 0l395.71 0m-8565.04 -114.18l337.15 0m2359.49 0l414.81 0m2349.95 0l390.83 0m2330.87 0l394.74 0m-8502.49 -114.17l332.79 0m2345.24 0l409.24 0m2329.88 0l593.24 0m2111.12 0l393.77 0m-8439.93 -114.18l328.44 0m2330.97 0l403.68 0m2309.81 0l586.77 0m2100.25 0l392.8 0m-8377.36 -114.16l324.07 0m2316.72 0l398.11 0m2289.75 0l580.29 0m2089.38 0l391.83 0m-8314.8 -114.18l319.72 0m2302.45 0l392.55 0m2269.68 0l573.82 0m2078.52 0l390.86 0m-8252.25 -114.17l315.36 0m2288.19 0l386.99 0m2249.61 0l567.34 0m2067.66 0l389.89 0m-8189.68 -114.18l311 0m2273.93 0l381.42 0m2229.55 0l560.86 0m2056.79 0l388.92 0m-8127.12 -114.18l306.64 0m2259.68 0l375.85 0m2209.48 0l554.39 0m2045.93 0l387.94 0m-8064.55 -114.18l302.28 0m2245.41 0l370.29 0m2189.41 0l547.92 0m11174.01 2284.93l-481.59 0m-2590.76 0l-368.32 0m-2561.45 0l-406.39 0m9398.72 106.29l-393.51 0m-2543.89 0l-486.76 0m3574.87 228.34l-402.23 0m-2572.4 0l-497.9 0m3397.17 -114.18l-397.86 0m-2558.15 0l-492.33 0m1720.42 -2618.09l-297.92 0m-2231.16 0l-363.48 0m-2170.58 0l-541.45 0m-1045.51 0l-3698.79 0m11855.96 2283.47l-385.09 0m-2516.36 0l-476.02 0m-2570.69 0l-370.2 0m-2542.23 0l-405.42 0m9190.65 -114.18l-380.73 0m-2502.09 0l-470.46 0m-2550.62 0l-372.08 0m-2523.01 0l-404.46 0m9128.1 -114.18l-376.37 0m-2487.84 0l-464.89 0m-2530.55 0l-373.95 0m-2503.8 0l-403.49 0m9065.53 -114.18l-372.01 0m-2473.58 0l-459.32 0m-2510.49 0l-375.82 0m-2484.59 0l-402.51 0m9002.97 -114.16l-367.65 0m-2459.32 0l-453.76 0m-2490.42 0l-377.7 0m-2465.37 0l-401.54 0m8940.41 -114.16l-363.3 0m-2445.05 0l-448.2 0m-2470.35 0l-379.58 0m-2446.15 0l-400.57 0m8877.85 -114.18l-358.95 0m-2430.79 0l-442.63 0m-2450.29 0l-381.45 0m-2426.94 0l-399.6 0m8815.29 -114.19l-354.58 0m-2416.53 0l-437.07 0m-2430.22 0l-383.33 0m-2407.72 0l-398.63 0m8752.73 -114.16l-350.22 0m-2402.28 0l-431.5 0m-2410.15 0l-385.2 0m-2388.51 0l-397.66 0m8690.17 -114.18l-345.87 0m-2388.01 0l-425.94 0m-2390.08 0l-387.08 0m-2369.3 0l-396.68 0m8627.61 -114.16l-341.51 0m-2373.76 0l-420.37 0m-2370.02 0l-388.95 0m-2350.08 0l-395.71 0m8565.04 -114.18l-337.15 0m-2359.49 0l-414.81 0m-2349.95 0l-390.83 0m-2330.87 0l-394.74 0m8502.49 -114.18l-332.79 0m-2345.24 0l-409.24 0m-2329.88 0l-593.24 0m-2111.12 0l-393.77 0m8439.93 -114.17l-328.44 0m-2330.97 0l-403.68 0m-2309.81 0l-586.77 0m-2100.25 0l-392.8 0m8377.36 -114.18l-324.07 0m-2316.72 0l-398.11 0m-2289.75 0l-580.29 0m-2089.38 0l-391.83 0m8314.8 -114.16l-319.72 0m-2302.45 0l-392.55 0m-2269.68 0l-573.82 0m-2078.52 0l-390.86 0m8252.25 -114.18l-315.36 0m-2288.19 0l-386.99 0m-2249.61 0l-567.34 0m-2067.66 0l-389.89 0m8189.68 -114.18l-311 0m-2273.93 0l-381.42 0m-2229.55 0l-560.86 0m-2056.79 0l-388.92 0m8127.12 -114.17l-306.64 0m-2259.68 0l-375.85 0m-2209.48 0l-554.39 0m-2045.93 0l-387.94 0m8064.55 -114.18l-302.28 0m-2245.41 0l-370.29 0m-2189.41 0l-547.92 0m7806.84 -168.96l-2214.03 0m4251.1 813.21l-49.66 -7.04m67.09 136.76l-159.14 -24.65m176.66 155.1l-267.12 -44.91m250.73 169.9l-339.64 -61.63m344.99 190.67l-432.36 -84.24m421.36 210.27l-507.22 -105.7m516.19 218.46l-600.56 -115.7m526.8 212.53l-609.71 -111.55m528.7 219.83l-610.17 -120.61m523.93 217.9l-603.99 -120.38m526.99 226.55l-612.93 -121.48m519.04 202.2l-595.68 -104.1m1023.12 1362.99l-1046.83 -382.08m1080.28 -1185.27l-56.92 -12.62m53.6 168.09l-164.13 -38.71m160.8 194.41l-269.42 -67.27m266.1 223.29l-372.86 -98.32m369.52 254.59l-474.44 -131.79m471.1 288.36l-574.2 -167.67m570.85 324.53l-672.18 -205.93m668.83 363.11l-768.41 -246.53m765.05 403.98l-862.91 -289.43m859.54 447.21l-955.71 -334.66m-1242.68 58.67l812.29 -842.05 904.88 121.71 -616.48 748.76 -105.84 47.64 -7.93 309.57 1232.95 576.77m-1225.02 -886.34l1212.65 510.59m-8352.81 -4204.26l-232.86 -71.39m4926.64 76.71l-122.32 -83.34m-1063.02 83.34l-142.25 -82.7m-2236.15 77.38l-198.71 -85.31m7436.5 250.77l-2336.12 -139.26 5.45 -343.98 2325.38 118.12m-519.56 5826.05l-1932.72 0 817.62 902.7m-3236.46 47.83c-54.45,-299.46 182.57,-496.92 625.27,-521.97m2702.99 -1122.51l-3456.74 0 1077.88 1605.18m-9477.78 -2431.36l10580.07 -46.2 2776.88 1897.68m33.06 -5669.5l-2095.5 -126.99 -10617.76 -0.02m12713.26 237.02l-2095.5 -127 -10617.76 -0.01m2124.76 289.12l-148.18 0m296.34 127.65l-148.16 -127.65 -0.01 -228.23m1968.56 354.24l-322.56 -128.67m1600.52 118.05l-326.75 -130.33m2672.93 142.59l-326.75 -130.33m5326.76 316.85l-2068.89 -184.24 0.16 -359.85 2063.44 120.78m-2206.65 3166.39l812.29 -842.05 904.88 121.71 -616.48 748.76 -105.84 47.64 -7.93 309.57 1232.95 576.77m-2219.87 -718.32l1288.54 -477.58m-7324.35 348.58l112.48 129m0 -244.08l-112.48 -329.42m-18426.1 -1739.14l49.66 -7.05m-67.09 136.77l159.14 -24.66m-176.66 155.1l267.12 -44.9m-250.73 169.89l339.64 -61.62m-344.99 190.65l432.36 -84.24m-421.36 210.29l507.22 -105.71m-516.19 218.45l600.56 -115.7m-526.8 212.53l609.71 -111.54m-528.7 219.83l610.17 -120.6m-523.93 217.9l603.99 -120.4m-526.99 226.57l612.93 -121.49m-519.04 202.21l595.68 -104.1m-1023.12 1362.99l1046.83 -382.1m-1080.28 -1185.25l56.92 -12.62m-53.6 168.07l164.13 -38.7m-160.8 194.42l269.42 -67.29m-266.1 223.29l372.86 -98.32m-369.52 254.59l474.44 -131.77m-471.1 288.36l574.2 -167.67m-570.85 324.53l672.18 -205.93m-668.83 363.11l768.41 -246.55m-765.05 403.99l862.91 -289.44m-859.54 447.21l955.71 -334.64m1242.68 58.67l-812.29 -842.07 -904.88 121.71 616.48 748.78 105.84 47.64 7.93 309.54 -1232.95 576.8m1225.02 -886.34l-1212.65 510.57m8352.81 -4204.24l232.86 -71.41m-4926.64 76.73l122.32 -83.36m1063.02 83.36l142.25 -82.72m2236.15 77.4l198.71 -85.31m-7436.5 250.75l2336.12 -139.26 -5.45 -343.96 -2325.38 118.1m9378.77 6686.73c0,0 865.76,-1200.1 3974.09,-1204.8 3108.34,-4.69 4100.62,1233.44 4100.62,1233.44m-16933.92 -889.32l1932.72 0 -817.62 902.72m3236.46 47.83c54.45,-299.47 -182.57,-496.92 -625.27,-521.99m-2702.99 -1122.49l3456.74 0 -1077.88 1605.18m9424.98 -17.2l-7.43 -2412.73 -10519.84 -47.64 -2776.88 1897.69m-33.06 -5669.5l2095.5 -126.99 11911.03 1.41m-14006.53 235.58l2095.5 -127.01 11911.03 1.44m-3418.03 287.67l148.18 0m-296.34 127.66l148.16 -127.66 0.01 -228.21m-1968.56 354.22l322.56 -128.65m-1600.52 118.04l326.75 -130.34m-2672.93 142.6l326.75 -130.32m-5326.76 316.85l2068.89 -184.25 -0.16 -359.84 -2063.44 120.76m2206.65 3166.41l-812.29 -842.07 -904.88 121.71 616.48 748.78 105.84 47.64 7.93 309.54 -1232.95 576.8m2219.87 -718.33l-1288.54 -477.59m7324.35 348.6l-112.48 128.99m0 -244.07l112.48 -329.42m4579.04 -428.66l1079.69 0.05m-5658.73 428.61l4572.01 0 0 444.5 -4572.01 0 0 -444.5zm4559.14 -2956.06l1140.36 0 0 355.87 -1140.36 0 0 -355.87zm1185.13 -658.79l1000.12 0 105.83 0 1053.01 0 0 248.76 -1053.01 0 0 79.33 -105.83 0 0 -79.33 -1000.12 0 0 79.33 -105.83 0 0 -80.77 -1044.19 0 0 79.34 -105.83 0 0 -79.34 -1000.12 0 0 79.34 -105.83 0 0 -79.34 -1053.01 0 0 -248.75 1053.01 0 105.83 0 1000.12 0 105.83 0 1047.76 0 0 1.43 102.26 0zm2275.38 0l1377.24 0 0 328.09 -1377.24 0 0 -328.09zm1813.81 0l47.62 0 0 328.09 -47.62 0 0 -328.09zm1221.06 0l-931.33 0 0 328.09 931.33 0 0 -328.09zm198.71 0l527.21 0 0 328.09 -527.21 0 0 -328.09zm1529.03 0l-328.08 0 -240.1 0 -383.64 0 0 328.09 383.64 0 0 -53.57 240.1 0 0 53.57 328.08 0 0 -328.09zm1912.39 4.63l-103.19 0 0 250.69 103.19 0 0 -250.69zm-1205.27 -4.63l-103.19 0 -160.06 0 -396.24 0 0 328.09 396.24 0 0 -37.71 160.06 0 0 -39.67 103.19 0 0 -250.71zm142.25 5.32l955.15 0 0 328.09 -955.15 0 0 -328.09zm2069.05 0l-883.71 0 0 328.09 883.71 0 0 -328.09zm351.89 0l-309.56 0 0 328.09 309.56 0 0 -328.09zm-9638.63 654.9l-666.75 0 0 355.88 666.75 0 0 -355.88zm391.59 0l-349.25 0 0 355.88 349.25 0 0 -355.88zm894.29 0l-777.87 0 0 355.88 777.87 0 0 -355.88zm336.08 0l-296.34 0 0 355.88 296.34 0 0 -355.88zm489.48 0l-449.8 0 0 355.88 449.8 0 0 -355.88zm720.38 0l-677.34 0 0 355.88 677.34 0 0 -130.31 287.97 0 0.12 0 10.89 0 0 -227.53 -298.98 0 0 1.96zm1563.72 0l-952.51 0 0 355.88 952.51 0 0 -355.88zm1365.22 0l-1026.58 0 0 355.88 1026.58 0 0 -355.88zm42.35 0l936.63 0 0 355.88 -936.63 0 0 -355.88zm1263.38 0l1071.58 0 0 355.88 -1071.58 0 0 -355.88zm2887.32 0l-1767.43 0 0 355.88 1767.43 0 0 -355.88zm-6022.58 3285.48l5923.33 0 0 244.08 -5923.33 0 0 -244.08zm-4683.08 -329.42l-1.41 0 0 444.5 4572.01 0 0 -1.43 11.99 0 0 -444.5 -4582.59 0 0 1.43zm-3449.05 -3617.71l-1377.24 0 0 328.09 1377.24 0 0 -328.09zm-1813.81 0l-47.62 0 0 328.09 47.62 0 0 -328.09zm-1221.06 0l931.33 0 0 328.09 -931.33 0 0 -328.09zm-198.71 0l-527.21 0 0 328.09 527.21 0 0 -328.09zm-1529.03 0l328.08 0 240.1 0 383.64 0 0 328.09 -383.64 0 0 -53.59 -240.1 0 0 53.59 -328.08 0 0 -328.09zm-1912.39 4.63l103.19 0 0 250.68 -103.19 0 0 -250.68zm1205.27 -4.63l103.19 0 160.06 0 396.24 0 0 328.09 -396.24 0 0 -37.71 -160.06 0 0 -39.69 -103.19 0 0 -250.69zm-142.25 5.32l-955.15 0 0 328.09 955.15 0 0 -328.09zm-2069.05 0l883.71 0 0 328.09 -883.71 0 0 -328.09zm-351.89 0l309.56 0 0 328.09 -309.56 0 0 -328.09zm9638.63 654.9l666.75 0 0 355.87 -666.75 0 0 -355.87zm-391.59 0l349.25 0 0 355.87 -349.25 0 0 -355.87zm-894.29 0l777.87 0 0 355.87 -777.87 0 0 -355.87zm-336.08 0l296.34 0 0 355.87 -296.34 0 0 -355.87zm-489.48 0l449.8 0 0 355.87 -449.8 0 0 -355.87zm-720.38 0l677.34 0 0 355.87 -677.34 0 0 -130.3 -287.84 0 -0.13 0 -11.01 0 0 -227.55 298.98 0 0 1.98zm-1563.72 0l952.51 0 0 355.87 -952.51 0 0 -355.87zm-1365.22 0l1026.58 0 0 355.87 -1026.58 0 0 -355.87zm-42.35 0l-936.63 0 0 355.87 936.63 0 0 -355.87zm-1263.38 0l-1071.58 0 0 355.87 1071.58 0 0 -355.87zm-2887.32 0l1767.43 0 0 355.87 -1767.43 0 0 -355.87zm6022.58 3285.48l-5923.33 0 0 244.07 5923.33 0 0 -244.07z"/>
  <path class="fil3 str1" d="M7342.31 1248.01l2088.01 0m-6093.33 2283.48l2404.11 0m576.54 0l2479.69 0m-5525.88 106.29l2415.51 0m582.99 0l2007.88 0m-5147.2 228.35l2440.02 0m596.83 0l1978.05 0m-4944.49 -114.18l2427.77 0m589.91 0l1999.57 0m-3402.73 -2618.11l2146.78 0m431.2 0l2068.43 0m-6054.57 2283.48l2391.85 0m569.62 0l2460.11 0m-5351.17 -114.18l2379.6 0m562.7 0l2440.52 0m-5312.41 -114.17l2367.34 0m555.78 0l2420.94 0m-5273.65 -114.18l2355.09 0m548.86 0l2401.35 0m-5234.9 -114.17l2342.84 0m541.94 0l2381.77 0m-5196.14 -114.17l2330.58 0m535.02 0l2362.19 0m-5157.38 -114.18l2318.33 0m528.1 0l2342.6 0m-5118.62 -114.17l2306.07 0m521.18 0l2323.02 0m-5079.87 -114.17l2293.83 0m514.25 0l2303.44 0m-5041.11 -114.18l2281.57 0m507.33 0l2283.86 0m-5002.35 -114.17l2269.32 0m500.41 0l2264.26 0m-4963.58 -114.18l2257.06 0m493.49 0l2244.69 0m-4924.83 -114.17l2244.81 0m486.56 0l2225.1 0m-4886.07 -114.17l2232.56 0m479.64 0l2205.52 0m-4847.31 -114.18l2220.31 0m472.72 0l2185.93 0m-4808.55 -114.17l2208.05 0m465.8 0l2166.35 0m-4769.8 -114.17l2195.8 0m458.88 0l2146.77 0m-4731.03 -114.18l2183.54 0m451.96 0l2127.18 0m-4692.28 -114.17l2171.29 0m445.04 0l2107.6 0m-4653.52 -114.18l2159.04 0"/>
 </g>
</svg>
