<?xml version="1.0" encoding="utf-8"?>
<!DOCTYPE svg PUBLIC "-//W3C//DTD SVG 1.1//EN" "http://www.w3.org/Graphics/SVG/1.1/DTD/svg11.dtd">
<svg version="1.1" id="Layer_1" xmlns="http://www.w3.org/2000/svg" xmlns:xlink="http://www.w3.org/1999/xlink" x="0px" y="0px" xml:space="preserve">
    <symbol viewBox="0 0 100 108" id="login">
    <title>login</title>
        <path d="M87.1,100.9c-1.1,0-2-0.9-2-2c0-19.5-15.9-35.4-35.4-35.4S14.4,79.4,14.4,98.9c0,1.1-0.9,2-2,2H9.5c-1.1,0-2-0.9-2-2
        c0-23.3,18.9-42.2,42.2-42.2C73.1,56.7,92,75.6,92,98.9c0,1.1-0.9,2-2,2H87.1z M49.8,52.8c-12.3,0-22.3-10.1-22.3-22.5
        C27.4,18,37.5,8,49.8,8s22.3,10.1,22.3,22.5C72.1,42.8,62.1,52.8,49.8,52.8z M49.8,14.9c-8.5,0-15.5,6.9-15.5,15.5
        s6.9,15.5,15.5,15.5c8.5,0,15.5-6.9,15.5-15.5S58.3,14.9,49.8,14.9z"></path>
    </symbol>
</svg>